<?xml version="1.0" encoding="UTF-8"?>
<!-- Generated by Pixelmator Pro 3.3 -->
<svg width="259" height="60" viewBox="0 0 259 60" xmlns="http://www.w3.org/2000/svg" xmlns:xlink="http://www.w3.org/1999/xlink">
    <g id="norr-copy">
        <path id="Path-copy" fill="none" stroke="#ffffff" stroke-width="3.056679" d="M 84.713959 50 C 84.713959 50 84.27121 39.664742 92.335587 39.664742 C 94.440552 39.664742 95.966156 40.363403 97.071373 41.397427"/>
        <path id="Path-copy-2" fill="none" stroke="#ffffff" stroke-width="3.056679" d="M 58.636448 50 C 58.636448 50 58.193703 39.664742 66.25808 39.664742 C 68.363045 39.664742 69.888649 40.363403 70.993866 41.397427"/>
        <path id="Ellipse" fill="none" stroke="#ffffff" stroke-width="3.056679" d="M 100 18.777431 C 100 14.557041 96.578697 11.135735 92.358299 11.135735 C 88.137909 11.135735 84.716606 14.557041 84.716606 18.777431 C 84.716606 22.997826 88.137909 26.419132 92.358299 26.419132 C 96.578697 26.419132 100 22.997826 100 18.777431 Z"/>
        <path id="Path" fill="none" stroke="#ffffff" stroke-width="3.056679" d="M 58.630302 23.948315 C 58.630302 23.948315 58.186665 13.581078 66.267212 13.581078 C 74.379448 13.581078 73.904121 23.948315 73.904121 23.948315"/>
    </g>
    <text id="norr" xml:space="preserve" x="123" y="40" font-family="Helvetica" font-size="36" font-weight="700" fill="#ffffff" letter-spacing="-0.36">norr</text>
</svg>
